<svg xmlns="http://www.w3.org/2000/svg" xmlns:xlink="http://www.w3.org/1999/xlink" width="152" height="152" viewBox="0 0 152 152">
  <defs>
    <polygon id="pinned-favicon-a" points="1.013 .339 43.123 .339 43.123 42.442 1.013 42.442"/>
  </defs>
  <g fill="none" fill-rule="evenodd">
    <polygon fill="#221E1F" points="100.448 0 100.448 66.965 127.021 66.965 127.021 61.401 106.243 61.401 106.243 0"/>
    <g transform="translate(13.287 9.566)">
      <path fill="#221E1F" d="M0.00202132294,24.6372867 C-0.141492606,11.2981751 10.640244,0.285323747 24.1669371,0.139806166 C32.8080926,0.0488576775 40.4668852,4.38204787 44.85922,11.0051189 L33.6711975,19.1096397 C31.7549834,15.6535972 28.4420351,13.3414845 24.3084297,13.3859482 C18.4849983,13.4465805 14.2099003,18.0041103 14.2806466,24.4836848 C14.3513929,30.9652804 18.7194717,35.4278196 24.5449245,35.3671872 C28.6785299,35.3227235 31.9409451,32.9378521 33.7823703,29.441388 L45.1422052,37.3074216 C40.8913631,44.0214412 33.3295939,48.5163175 24.6864171,48.6113082 C11.1597239,48.7548047 0.143513929,37.9763983 0.00202132294,24.6372867"/>
      <g transform="translate(78.832 99.99)">
        <mask id="pinned-favicon-b" fill="#fff">
          <use xlink:href="#pinned-favicon-a"/>
        </mask>
        <path fill="#F16E5D" d="M39.9963213,42.4422236 C39.1958774,42.4422236 38.3954335,42.1370409 37.784994,41.5266755 L1.92874635,5.67680252 C0.707867293,4.4560717 0.707867293,2.47541574 1.92874635,1.25468492 C3.1496254,0.0339541022 5.13052188,0.0339541022 6.35140094,1.25468492 L42.2076486,37.1045579 C43.4285276,38.3252887 43.4285276,40.3059446 42.2076486,41.5266755 C41.597209,42.1370409 40.7967651,42.4422236 39.9963213,42.4422236" mask="url(#pinned-favicon-b)"/>
      </g>
      <path fill="#F16E5D" d="M82.9710619,142.433162 C82.170618,142.433162 81.3701741,142.130001 80.7597346,141.517614 C79.5388555,140.296883 79.5388555,138.316227 80.7597346,137.095497 L116.618004,101.245624 C117.836861,100.024893 119.817758,100.024893 121.038637,101.245624 C122.259516,102.466354 122.259516,104.44701 121.038637,105.667741 L85.1844105,141.517614 C84.5719497,142.12798 83.7715058,142.433162 82.9710619,142.433162"/>
    </g>
  </g>
</svg>
